<?xml version="1.0" encoding="UTF-8"?>
<svg version="1.1" xmlns="http://www.w3.org/2000/svg" width="500" height="500">
<path d="M0 0 C1.73044556 0.0014502 1.73044556 0.0014502 3.49584961 0.00292969 C4.70635986 0.01614258 5.91687012 0.02935547 7.1640625 0.04296875 C8.41904541 0.05231445 9.67402832 0.06166016 10.96704102 0.07128906 C14.57487363 0.1075744 18.18167874 0.1636556 21.7890625 0.23046875 C23.0886792 0.25149658 23.0886792 0.25149658 24.41455078 0.27294922 C48.42077006 0.77752198 70.71408033 7.02510851 91.7890625 18.23046875 C93.11984324 18.90221635 94.45170119 19.57191962 95.7890625 20.23046875 C95.7890625 20.89046875 95.7890625 21.55046875 95.7890625 22.23046875 C96.51480469 22.45734375 97.24054688 22.68421875 97.98828125 22.91796875 C101.37505514 24.50507618 103.14382904 26.42628861 105.6015625 29.23046875 C106.39175781 30.11734375 107.18195313 31.00421875 107.99609375 31.91796875 C109.7890625 34.23046875 109.7890625 34.23046875 109.7890625 36.23046875 C113.01711221 34.84701887 114.74341669 33.34331849 116.9140625 30.60546875 C120.95665811 25.82785576 125.5512103 21.67353244 130.7890625 18.23046875 C131.7790625 18.23046875 132.7690625 18.23046875 133.7890625 18.23046875 C133.7890625 17.57046875 133.7890625 16.91046875 133.7890625 16.23046875 C135.1090625 16.23046875 136.4290625 16.23046875 137.7890625 16.23046875 C137.7890625 15.57046875 137.7890625 14.91046875 137.7890625 14.23046875 C140.07850221 13.28721959 142.37040674 12.35086912 144.6640625 11.41796875 C145.29570312 11.15693359 145.92734375 10.89589844 146.578125 10.62695312 C164.48730878 3.3737337 183.56099175 0.50960322 202.7890625 0.23046875 C203.78502441 0.21532227 204.78098633 0.20017578 205.80712891 0.18457031 C209.00951118 0.14436279 212.21146493 0.12017193 215.4140625 0.10546875 C216.90740112 0.09821777 216.90740112 0.09821777 218.4309082 0.09082031 C234.68777188 0.12917813 234.68777188 0.12917813 236.7890625 2.23046875 C236.88787997 4.16444364 236.91538477 6.10207652 236.91604614 8.03857422 C236.91886597 9.30062683 236.92168579 10.56267944 236.92459106 11.86297607 C236.92264647 13.27453627 236.92059828 14.68609633 236.91845703 16.09765625 C236.91981102 17.57399539 236.92159094 19.0503342 236.92376709 20.52667236 C236.92834169 24.54722159 236.92655176 28.56774528 236.923388 32.58829498 C236.92086454 36.78656587 236.9232019 40.9848345 236.92477417 45.18310547 C236.92659591 52.23470454 236.92418945 59.28629314 236.91943359 66.33789062 C236.91399097 74.50229925 236.91575362 82.66668291 236.92126 90.83109093 C236.92579102 97.82809857 236.92644173 104.82509868 236.92382133 111.82210732 C236.92225849 116.00671422 236.92206497 120.19130937 236.92535782 124.37591553 C236.92823637 128.30910161 236.92626114 132.24225536 236.92046356 136.17543793 C236.91913588 137.62309465 236.91953022 139.07075407 236.92172623 140.51840973 C236.92443737 142.48639329 236.92044323 144.45438277 236.91604614 146.42236328 C236.9154806 148.07825974 236.9154806 148.07825974 236.91490364 149.76760864 C236.7890625 152.23046875 236.7890625 152.23046875 235.7890625 153.23046875 C232.85019406 153.30706661 229.93455053 153.32100899 226.99609375 153.29296875 C226.09847824 153.28918213 225.20086273 153.28539551 224.27604675 153.28149414 C220.42884699 153.26517931 216.58175276 153.23748024 212.73461914 153.20996094 C191.44313289 152.98280223 191.44313289 152.98280223 170.4140625 155.98046875 C169.62169189 156.15312256 168.82932129 156.32577637 168.01293945 156.50366211 C159.10117026 158.51083336 149.72842041 160.67937181 141.58984375 164.8828125 C138.7890625 166.23046875 138.7890625 166.23046875 134.7890625 166.23046875 C134.7890625 166.89046875 134.7890625 167.55046875 134.7890625 168.23046875 C133.70238281 168.79314453 133.70238281 168.79314453 132.59375 169.3671875 C126.13322785 172.7253733 126.13322785 172.7253733 120.4140625 177.16796875 C117.7890625 179.23046875 117.7890625 179.23046875 115.0390625 179.04296875 C114.2965625 178.77484375 113.5540625 178.50671875 112.7890625 178.23046875 C110.70457151 178.13073684 110.70457151 178.13073684 108.484375 178.953125 C104.7257977 179.33987716 103.55845181 178.01372009 100.6640625 175.66796875 C74.21753033 155.40053288 41.14582289 153.01417965 9.1015625 153.23046875 C5.09765936 153.25697839 1.09380095 153.27695454 -2.91015625 153.29296875 C-3.8297966 153.30126709 -4.74943695 153.30956543 -5.69694519 153.31811523 C-7.86845579 153.32663315 -10.04006948 153.28397465 -12.2109375 153.23046875 C-13.2109375 152.23046875 -13.2109375 152.23046875 -13.33398533 149.76481533 C-13.33306354 148.65958554 -13.33214174 147.55435575 -13.33119202 146.41563416 C-13.33256668 145.15213638 -13.33394135 143.88863861 -13.33535767 142.58685303 C-13.33181805 141.17370582 -13.32818324 139.76055885 -13.32446289 138.34741211 C-13.32418103 136.86945091 -13.32433874 135.39148956 -13.3249054 133.91352844 C-13.3251934 129.88891047 -13.3192962 125.86432203 -13.31233144 121.83971095 C-13.30609838 117.6383051 -13.30549414 113.43689865 -13.30430603 109.23548889 C-13.30119257 101.27400618 -13.29297899 93.31253713 -13.28295654 85.35106045 C-13.27179586 76.28954286 -13.26628507 67.22802463 -13.26126111 58.16650188 C-13.25079638 39.52114975 -13.23319666 20.87581034 -13.2109375 2.23046875 C-8.64744307 0.87128457 -4.76907505 -0.01905836 0 0 Z M52.140625 64.1796875 C46.3376689 71.91137179 45.72925548 79.80455072 46.46484375 89.15673828 C47.86865146 98.13561078 55.85095947 105.06933501 62.7890625 110.23046875 C68.19618328 113.87385794 73.72084797 116.85595002 79.7890625 119.23046875 C79.41652344 120.13410156 79.04398438 121.03773438 78.66015625 121.96875 C78.18707031 123.14824219 77.71398437 124.32773437 77.2265625 125.54296875 C76.75089844 126.71472656 76.27523437 127.88648438 75.78515625 129.09375 C74.45608905 132.21242959 74.45608905 132.21242959 75.7890625 135.23046875 C81.68575514 132.78716324 87.76930058 130.25174942 92.7890625 126.23046875 C92.7890625 125.57046875 92.7890625 124.91046875 92.7890625 124.23046875 C93.4490625 124.23046875 94.1090625 124.23046875 94.7890625 124.23046875 C94.7890625 123.57046875 94.7890625 122.91046875 94.7890625 122.23046875 C95.77003906 122.55402344 96.75101563 122.87757813 97.76171875 123.2109375 C101.94732378 124.39887208 105.89442379 124.57561236 110.2265625 124.54296875 C111.0100708 124.5380542 111.7935791 124.53313965 112.60083008 124.52807617 C132.70719402 124.13295968 152.83839203 118.05983894 167.7890625 104.23046875 C170.22610722 101.5783221 170.22610722 101.5783221 170.7890625 98.23046875 C171.4490625 98.23046875 172.1090625 98.23046875 172.7890625 98.23046875 C177.14818742 90.87444544 178.0523393 83.66146825 176.7890625 75.23046875 C175.17404441 70.96887476 173.17529201 67.1080917 170.7890625 63.23046875 C170.1290625 63.23046875 169.4690625 63.23046875 168.7890625 63.23046875 C168.57121094 62.66199219 168.35335937 62.09351563 168.12890625 61.5078125 C161.86212943 50.85611895 146.25235614 45.64164408 135.06835938 42.59057617 C127.91033588 40.80171101 120.8744617 40.6254817 113.52783203 40.70898438 C111.28958927 40.73046369 109.05455389 40.70903281 106.81640625 40.68359375 C85.77273757 40.64043687 66.01118318 47.77824548 52.140625 64.1796875 Z M110.7890625 130.23046875 C110.7890625 135.18046875 110.7890625 140.13046875 110.7890625 145.23046875 C111.1190625 145.23046875 111.4490625 145.23046875 111.7890625 145.23046875 C111.7890625 140.28046875 111.7890625 135.33046875 111.7890625 130.23046875 C111.4590625 130.23046875 111.1290625 130.23046875 110.7890625 130.23046875 Z " fill="#0A0A0A" transform="translate(138.2109375,145.76953125)"/>
<path d="M0 0 C0.33 47.19 0.66 94.38 1 143 C8.425 142.01 8.425 142.01 16 141 C19.08327897 140.84742316 22.06368572 140.73772596 25.13671875 140.76953125 C25.90828812 140.76998947 26.67985748 140.77044769 27.47480774 140.7709198 C29.07672704 140.77389159 30.67864483 140.78161998 32.28051758 140.79418945 C34.69558241 140.81256149 37.11026271 140.8146973 39.52539062 140.81445312 C51.32924396 140.83989588 62.87106687 141.25233113 74.4375 143.8125 C75.2517041 143.98990723 76.0659082 144.16731445 76.90478516 144.35009766 C88.60915506 146.96261835 99.2282428 150.7102978 110 156 C110.886875 156.42410156 111.77375 156.84820312 112.6875 157.28515625 C118.60017285 160.15834571 124.66982597 163.13278863 130 167 C130 167.66 130 168.32 130 169 C134.82861594 166.41281566 139.46532058 163.70135985 144 160.625 C168.28128164 145.12130078 198.28657628 140.8117358 226.48266602 140.81469727 C228.79917858 140.81251256 231.11521172 140.79427922 233.43164062 140.77539062 C234.96093593 140.77245436 236.49023342 140.77047112 238.01953125 140.76953125 C238.68362503 140.76234573 239.34771881 140.75516022 240.03193665 140.74775696 C247.74628583 140.78278492 255.36836943 141.97088092 263 143 C262.99861731 141.9050204 262.99861731 141.9050204 262.99720669 140.78792 C262.97514531 123.04532319 262.95858544 105.30272912 262.94818783 87.56012154 C262.94302629 78.98001743 262.93598628 70.39992246 262.92456055 61.81982422 C262.91460939 54.34350163 262.90814554 46.86718565 262.90591151 39.39085662 C262.90460514 35.43032314 262.90152391 31.46980859 262.89426994 27.50928116 C262.88750293 23.78458713 262.88538444 20.05991992 262.88689232 16.33522034 C262.8866163 14.96538523 262.8846152 13.59554926 262.88079453 12.22571945 C262.87584675 10.36094556 262.87760492 8.4961574 262.87974548 6.63137817 C262.87836279 5.06340831 262.87836279 5.06340831 262.87695217 3.46376228 C263 1 263 1 264 -1 C267.63 -1 271.26 -1 275 -1 C276.3790103 1.7580206 276.13231237 3.97880346 276.14044189 7.0667572 C276.14615204 8.36095078 276.15186218 9.65514435 276.15774536 10.98855591 C276.15899077 12.43109121 276.16011586 13.87362663 276.16113281 15.31616211 C276.16575988 16.82881288 276.17078439 18.34146248 276.17617798 19.85411072 C276.18931319 23.96976449 276.19574891 28.08540194 276.20018864 32.20107341 C276.20311706 34.77037384 276.20722138 37.33966979 276.21169281 39.90896797 C276.22536959 47.94203386 276.23503583 55.97508953 276.2388947 64.00816625 C276.24337855 73.29205349 276.2609408 82.57579372 276.2898953 91.85963625 C276.31148214 99.02909396 276.32159734 106.19851021 276.32293582 113.36800009 C276.32398584 117.65331356 276.32993551 121.93848888 276.34775543 126.22376823 C276.36418485 130.2530664 276.3664168 134.28212179 276.35761642 138.31144142 C276.35684333 139.79212975 276.36122446 141.27283086 276.37107468 142.75348663 C276.38371198 144.77103825 276.37615579 146.78868656 276.36749268 148.80625916 C276.36895924 149.9365451 276.3704258 151.06683104 276.3719368 152.23136806 C276 155 276 155 274.72410202 156.90053654 C271.514545 158.94727776 267.58388115 157.581548 264 157 C262.13091192 156.74351736 260.26107389 156.49245641 258.390625 156.24609375 C257.40006104 156.11348145 256.40949707 155.98086914 255.38891602 155.84423828 C215.49933882 150.67537808 174.47704897 155.32538106 141 179 C140.09507812 179.72960937 139.19015625 180.45921875 138.2578125 181.2109375 C135.66887512 183.26237923 134.29938371 183.91952723 131 184 C126.40149364 182.26278649 122.75425861 179.42052939 118.9296875 176.40234375 C117.02484694 175.01805678 115.13190857 173.99015309 113 173 C113 172.34 113 171.68 113 171 C112.13000366 170.80422363 112.13000366 170.80422363 111.24243164 170.60449219 C109.0666128 170.01795681 107.16902462 169.26141041 105.12109375 168.328125 C73.05862626 154.04698059 39.85340416 151.28552911 5.25 156.24609375 C3.92548828 156.43147705 3.92548828 156.43147705 2.57421875 156.62060547 C0.86409022 156.87264831 -0.84213954 157.15280758 -2.54296875 157.46142578 C-3.33316406 157.58888184 -4.12335938 157.71633789 -4.9375 157.84765625 C-5.97197266 158.03533569 -5.97197266 158.03533569 -7.02734375 158.22680664 C-10.10228834 157.87326412 -11.10380959 156.3710252 -13 154 C-13.47657394 151.10273361 -13.47657394 151.10273361 -13.4430542 147.67254639 C-13.4401387 146.37126801 -13.43722321 145.06998962 -13.43421936 143.72927856 C-13.41062071 142.28923945 -13.38663621 140.84920661 -13.36230469 139.40917969 C-13.35131311 137.89137913 -13.34209492 136.37356485 -13.33451843 134.85574341 C-13.30892248 130.73596629 -13.25849276 126.61682163 -13.20364666 122.49734402 C-13.15053445 118.19197086 -13.12020008 113.88643919 -13.08746338 109.58087158 C-13.02200617 101.4280401 -12.93602481 93.27555903 -12.84269357 85.1230042 C-12.73743533 75.84148054 -12.65502028 66.55979823 -12.5745368 57.27803183 C-12.40846655 38.1850662 -12.21366774 19.09248929 -12 0 C-6.70105407 -2.27097683 -5.9783406 -1.9927802 0 0 Z " fill="#1E1E1E" transform="translate(118,165)"/>
<path d="M0 0 C3.63 0 7.26 0 11 0 C10.67 0.66 10.34 1.32 10 2 C7.03 1.67 4.06 1.34 1 1 C1 48.85 1 96.7 1 146 C-3.29 145.34 -7.58 144.68 -12 144 C-12 143.67 -12 143.34 -12 143 C-8.13013042 142.92557943 -4.7264085 142.95297814 -1 144 C-1.00092179 143.2700136 -1.00184359 142.5400272 -1.00279331 141.78792 C-1.02485469 124.04532319 -1.04141456 106.30272912 -1.05181217 88.56012154 C-1.05697371 79.98001743 -1.06401372 71.39992246 -1.07543945 62.81982422 C-1.08539061 55.34350163 -1.09185446 47.86718565 -1.09408849 40.39085662 C-1.09539486 36.43032314 -1.09847609 32.46980859 -1.10573006 28.50928116 C-1.11249707 24.78458713 -1.11461556 21.05991992 -1.11310768 17.33522034 C-1.1133837 15.96538523 -1.1153848 14.59554926 -1.11920547 13.22571945 C-1.12415325 11.36094556 -1.12239508 9.4961574 -1.12025452 7.63137817 C-1.12117631 6.58606493 -1.1220981 5.54075169 -1.12304783 4.46376228 C-1 2 -1 2 0 0 Z " fill="#BFBFBF" transform="translate(382,164)"/>
</svg>
